<?xml version="1.0" standalone="no"?><!DOCTYPE svg PUBLIC "-//W3C//DTD SVG 1.1//EN" "http://www.w3.org/Graphics/SVG/1.1/DTD/svg11.dtd"><svg t="1516632144557" class="icon" style="" viewBox="0 0 1024 1024" version="1.1" xmlns="http://www.w3.org/2000/svg" p-id="4716" xmlns:xlink="http://www.w3.org/1999/xlink" width="64" height="64"><defs><style type="text/css"></style></defs><path d="M480 64C214.848 64 0 278.848 0 544S214.848 1024 480 1024 960 809.152 960 544 745.152 64 480 64zM256 384c35.392 0 64 28.608 64 64S291.392 512 256 512 192 483.392 192 448 220.608 384 256 384zM739.456 668.416C692.992 765.12 594.432 832 480 832c-114.368 0-212.8-66.944-259.264-163.52-6.272-6.208-10.176-14.656-10.176-24.128 0-18.752 15.168-33.92 33.92-33.92 16.32 0 29.312 11.84 32.512 27.136C312.512 714.432 389.824 768 480 768c90.432 0 168-53.76 203.392-130.944 3.328-15.296 16.32-27.072 32.64-27.072 18.752 0 33.984 15.232 33.984 33.984C750.016 653.632 745.856 662.272 739.456 668.416zM704 512c-35.392 0-64-28.608-64-64s28.608-64 64-64 64 28.608 64 64S739.392 512 704 512z" p-id="4717" fill="#f4e3b8"></path></svg>